<svg width="81" height="61" viewBox="0 0 81 61" fill="none" xmlns="http://www.w3.org/2000/svg">
<path d="M45.2 10.6769V7.78003H47.7C49.0812 7.78003 50.2 6.66128 50.2 5.28003V2.78003C50.2 1.39878 49.0812 0.280029 47.7 0.280029H32.7C31.3187 0.280029 30.2 1.39878 30.2 2.78003V5.28003C30.2 6.66128 31.3187 7.78003 32.7 7.78003H35.2V10.6769C18.2453 13.1097 5.19995 27.6519 5.19995 45.28H75.2C75.2 27.6519 62.1546 13.1097 45.2 10.6769ZM77.7 50.28H2.69995C1.3187 50.28 0.199951 51.3988 0.199951 52.78V57.78C0.199951 59.1613 1.3187 60.28 2.69995 60.28H77.7C79.0812 60.28 80.2 59.1613 80.2 57.78V52.78C80.2 51.3988 79.0812 50.28 77.7 50.28Z" fill="white"/>
</svg>
