<svg width="76" height="71" viewBox="0 0 76 71" fill="none" xmlns="http://www.w3.org/2000/svg">
<path d="M75.2999 57.4831L52.7999 44.6394V54.7488H38.5343C43.3468 49.28 51.3156 39.7644 56.0031 31.4206C61.5031 21.6394 58.5187 12.1394 54.0031 7.46751C53.3156 6.74876 44.2843 -2.36061 28.0656 1.03001C18.8312 2.96751 14.0968 7.81126 11.7687 11.5456C9.7218 14.8113 9.11243 17.7644 8.92493 18.9988C8.06555 24.155 11.9562 29.4831 17.7843 29.4831C22.7374 29.4831 26.7374 25.4675 26.7374 20.5144C26.7374 16.28 23.6593 12.3738 19.2374 11.6394C19.5187 10.4988 22.0031 8.34251 23.3468 7.78001C29.7687 5.07689 35.5343 8.59251 36.3624 13.0144C37.6593 19.9363 30.5656 27.1394 25.4718 32.9519C13.5031 46.5456 3.1593 57.28 0.299927 60.2644L52.7999 60.2488V70.28L75.2999 57.4831ZM58.0968 53.2488L65.4562 57.4988L58.0968 61.7488V53.2488ZM21.2687 20.4988C21.2687 22.4363 19.7062 23.9988 17.7687 23.9988C15.8312 23.9988 14.2687 22.4363 14.2687 20.4988C14.2687 18.5613 15.8312 16.9988 17.7687 16.9988C19.7062 16.9988 21.2687 18.5769 21.2687 20.4988ZM13.1906 54.7331C17.1906 50.4519 28.4562 38.3738 36.7531 28.1863C42.2374 21.4519 43.0499 15.3113 41.1906 10.5769C40.0343 7.63939 38.4562 5.85814 37.3937 4.99876C44.4718 5.32689 48.0187 8.65501 50.2374 10.9831C50.2374 10.9831 56.8624 18.5144 51.1437 28.6863C45.3624 38.9831 33.8156 51.7331 31.0656 54.7331H13.1906Z" fill="white"/>
</svg>
