<svg width="68" height="71" viewBox="0 0 68 71" fill="none" xmlns="http://www.w3.org/2000/svg">
<path d="M25.8328 31.6571C25.9989 31.6571 26.1613 31.608 26.2995 31.5159C26.4377 31.4237 26.5455 31.2927 26.6093 31.1394C26.9555 29.6137 27.7694 28.2341 28.9375 27.1932C29.1317 27.0638 29.1964 26.805 29.1964 26.5461C29.1881 26.4402 29.1544 26.3378 29.0981 26.2477C29.0417 26.1576 28.9644 26.0824 28.8728 26.0286L10.6295 15.3539L22.2747 8.56128C22.5033 8.42935 22.6946 8.24131 22.8304 8.01492C22.9663 7.78852 23.0421 7.53124 23.0509 7.26737C23.0558 7.00062 22.9856 6.73786 22.8484 6.50907C22.7111 6.28029 22.5123 6.0947 22.2747 5.97347L18.7812 3.96753C18.5539 3.84028 18.2977 3.77346 18.0372 3.77346C17.7767 3.77346 17.5206 3.84028 17.2932 3.96753L1.637 13.0247C1.4083 13.1566 1.217 13.3447 1.08115 13.5711C0.945305 13.7975 0.869395 14.0547 0.860589 14.3186V32.3041C0.855715 32.5709 0.925924 32.8336 1.06321 33.0624C1.20049 33.2912 1.39931 33.4768 1.637 33.598L5.13043 35.6035C5.36433 35.7434 5.63444 35.811 5.90668 35.7975C6.28911 35.8079 6.6605 35.6687 6.94184 35.4094C7.22137 35.1099 7.38243 34.719 7.39496 34.3096V20.9832L25.5093 31.5925C25.6105 31.6394 25.7214 31.6615 25.8328 31.6571ZM49.5112 54.3003C49.2418 54.3106 48.9774 54.3767 48.7348 54.4944L37.0898 61.2228V40.2616C37.0898 39.8085 36.6367 39.3553 36.1193 39.5499C34.6451 39.9916 33.0769 40.014 31.5906 39.6146C31.4789 39.5822 31.3613 39.576 31.2468 39.5963C31.1323 39.6166 31.0241 39.6629 30.9303 39.7317C30.8366 39.8004 30.7599 39.8898 30.7061 39.9929C30.6524 40.096 30.623 40.21 30.6203 40.3263V61.158L18.9751 54.4297C18.7412 54.2897 18.471 54.2222 18.1987 54.2357C17.8054 54.24 17.4295 54.3982 17.1514 54.6763C16.8733 54.9544 16.7151 55.3303 16.7107 55.7236V59.7994C16.7058 60.0662 16.776 60.329 16.9133 60.5577C17.0506 60.7865 17.2494 60.9721 17.4872 61.0933L33.1434 70.086C33.3773 70.2259 33.6474 70.2934 33.9197 70.28C34.1901 70.2772 34.4561 70.2107 34.6961 70.086L50.3523 61.0933C50.581 60.9614 50.7723 60.7733 50.9081 60.5469C51.0439 60.3206 51.1198 60.0633 51.1286 59.7994V55.7236C51 55.0121 50.2875 54.3003 49.5112 54.3003ZM43.6886 7.46753C44.3993 7.46753 45.0941 7.25676 45.6851 6.86187C46.2761 6.46699 46.7367 5.90572 47.0087 5.24905C47.2807 4.59238 47.3519 3.86979 47.2133 3.17268C47.0746 2.47556 46.7323 1.83521 46.2297 1.33262C45.7271 0.830021 45.0868 0.48775 44.3897 0.349084C43.6925 0.210418 42.97 0.281586 42.3133 0.553589C41.6566 0.825591 41.0954 1.28621 40.7005 1.8772C40.3056 2.46819 40.0948 3.163 40.0948 3.87378C40.0948 4.8269 40.4734 5.74099 41.1474 6.41495C41.8213 7.0889 42.7354 7.46753 43.6886 7.46753ZM53.6303 5.89159C52.9195 5.89159 52.2247 6.10236 51.6337 6.49725C51.0427 6.89214 50.5821 7.4534 50.3101 8.11007C50.0381 8.76675 49.9669 9.48933 50.1056 10.1864C50.2442 10.8836 50.5865 11.5239 51.0891 12.0265C51.5917 12.5291 52.232 12.8714 52.9292 13.01C53.6263 13.1487 54.3489 13.0775 55.0055 12.8055C55.6622 12.5335 56.2235 12.0729 56.6184 11.4819C57.0133 10.8909 57.224 10.1961 57.224 9.48534C57.224 8.53222 56.8454 7.61814 56.1714 6.94418C55.4975 6.27022 54.5834 5.89159 53.6303 5.89159ZM63.5025 18.9675C64.2132 18.9675 64.9081 18.7568 65.499 18.3619C66.09 17.967 66.5506 17.4057 66.8227 16.749C67.0947 16.0924 67.1658 15.3698 67.0272 14.6727C66.8885 13.9756 66.5462 13.3352 66.0436 12.8326C65.541 12.33 64.9007 11.9877 64.2036 11.8491C63.5064 11.7104 62.7839 11.7816 62.1272 12.0536C61.4705 12.3256 60.9093 12.7862 60.5144 13.3772C60.1195 13.9682 59.9087 14.663 59.9087 15.3738C59.9087 16.3269 60.2873 17.241 60.9613 17.9149C61.6353 18.5889 62.5493 18.9675 63.5025 18.9675ZM53.6303 17.53C52.9195 17.53 52.2247 17.7408 51.6337 18.1357C51.0427 18.5306 50.5821 19.0918 50.3101 19.7485C50.0381 20.4052 49.9669 21.1278 50.1056 21.8249C50.2442 22.522 50.5865 23.1624 51.0891 23.6649C51.5917 24.1675 52.232 24.5098 52.9292 24.6485C53.6263 24.7871 54.3489 24.716 55.0055 24.444C55.6622 24.172 56.2235 23.7114 56.6184 23.1204C57.0133 22.5294 57.224 21.8346 57.224 21.1238C57.224 20.1707 56.8454 19.2566 56.1714 18.5826C55.4975 17.9087 54.5834 17.53 53.6303 17.53ZM43.6886 30.5369C44.3993 30.5369 45.0941 30.3261 45.6851 29.9313C46.2761 29.5364 46.7367 28.9751 47.0087 28.3184C47.2807 27.6618 47.3519 26.9392 47.2133 26.2421C47.0746 25.5449 46.7323 24.9046 46.2297 24.402C45.7271 23.8994 45.0868 23.5571 44.3897 23.4185C43.6925 23.2798 42.97 23.351 42.3133 23.623C41.6566 23.895 41.0954 24.3556 40.7005 24.9466C40.3056 25.5376 40.0948 26.2324 40.0948 26.9432C40.0947 27.4151 40.1876 27.8825 40.3682 28.3186C40.5488 28.7547 40.8135 29.151 41.1472 29.4847C41.4809 29.8185 41.8771 30.0833 42.3131 30.2639C42.7492 30.4446 43.2166 30.5375 43.6886 30.5375V30.5369ZM33.9895 36.2178C34.7003 36.2178 35.3951 36.0071 35.9861 35.6122C36.5771 35.2173 37.0377 34.656 37.3097 33.9994C37.5817 33.3427 37.6529 32.6201 37.5142 31.923C37.3755 31.2259 37.0333 30.5855 36.5307 30.0829C36.0281 29.5803 35.3877 29.2381 34.6906 29.0994C33.9935 28.9607 33.2709 29.0319 32.6142 29.3039C31.9576 29.5759 31.3963 30.0365 31.0014 30.6275C30.6065 31.2185 30.3957 31.9133 30.3957 32.6241C30.3957 33.0961 30.4886 33.5635 30.6691 33.9996C30.8497 34.4356 31.1144 34.8319 31.4481 35.1657C31.7818 35.4994 32.178 35.7642 32.6141 35.9449C33.0501 36.1255 33.5175 36.2185 33.9895 36.2185V36.2178ZM63.5025 23.3494C62.7917 23.3494 62.0969 23.5602 61.5059 23.9551C60.9149 24.3499 60.4543 24.9112 60.1823 25.5679C59.9103 26.2246 59.8391 26.9471 59.9778 27.6443C60.1164 28.3414 60.4587 28.9817 60.9613 29.4843C61.4639 29.9869 62.1042 30.3292 62.8014 30.4679C63.4985 30.6065 64.2211 30.5354 64.8777 30.2633C65.5344 29.9913 66.0957 29.5307 66.4906 28.9397C66.8854 28.3487 67.0962 27.6539 67.0962 26.9432C67.096 25.9901 66.7173 25.0762 66.0434 24.4024C65.3695 23.7286 64.4555 23.35 63.5025 23.35V23.3494ZM63.5025 34.6419C62.7917 34.6419 62.0969 34.8527 61.5059 35.2476C60.9149 35.6425 60.4543 36.2037 60.1823 36.8604C59.9103 37.5171 59.8391 38.2396 59.9778 38.9368C60.1164 39.6339 60.4587 40.2742 60.9613 40.7768C61.4639 41.2794 62.1042 41.6217 62.8014 41.7604C63.4985 41.899 64.2211 41.8278 64.8777 41.5558C65.5344 41.2838 66.0957 40.8232 66.4906 40.2322C66.8854 39.6412 67.0962 38.9464 67.0962 38.2357C67.096 37.2826 66.7173 36.3687 66.0434 35.6949C65.3695 35.0211 64.4555 34.6425 63.5025 34.6425V34.6419Z" fill="white"/>
</svg>
